<svg xmlns="http://www.w3.org/2000/svg" viewBox="0 0 600 600" fill="currentColor"><g transform=" translate(293.035, 553.013) scale(0.97724, 0.97724) translate(-533.035, -800.013)"><path d=" M603.36 416.33 C581,433 586.63,450.25 583.86,466.55 C583.19,470.47 577.75,469.25 576.54,465.71 C559.5,447 549.55,423.61 559.33,394.37 C577.25,340.75 614.25,311.25 594.16,288.45 C590.97,284.83 591.83,284.26 590.22,288.82 C572.5,339 363,338 427.98,536 C430.85,544.77 430.25,555.25 429.51,565.8 C429.28,568.95 427.08,571.32 424.17,570.12 C401.5,560.75 395.38,525.75 390.42,516.28 C389,513.58 387.5,514.5 385.67,517.95 C381.03,524.07 377.94,532.3 374.2,538.54 C336.92,600.69 343.58,664.33 368.03,714.96 C368.94,716.86 369.89,718.74 370.85,720.6 C371.93,722.68 373.05,724.75 374.19,726.79 C391.8,758.26 416.04,783.76 439.75,799.32 C442.6,801.19 446.26,798.52 445.29,795.24 C437.07,767.62 642.75,744.75 634.67,795.2 C634.12,798.62 637.29,801.28 640.2,799.38 C659.88,786.47 680.25,766.82 695.21,741.99 C696.41,740.01 697.57,737.99 698.7,735.93 C699.47,734.52 700.23,733.09 700.97,731.65 C711.2,711.65 717.8,688.75 718.09,663.65 C718.33,643.75 714.58,622.45 705.52,600.11 C703.78,595.83 700.25,616.5 684.38,613.26 C682.86,612.95 691.25,586.13 692.06,570.64 C692.44,563.26 690.67,544.7 683.23,524.06 C667.77,481.12 615.5,466.25 609.58,417.31 C609.25,414.61 605.53,414.71 603.36,416.33z"/></g></svg>